<?xml version="1.0" standalone="no"?>
<!DOCTYPE svg PUBLIC "-//W3C//DTD SVG 20010904//EN"
 "http://www.w3.org/TR/2001/REC-SVG-20010904/DTD/svg10.dtd">
<svg version="1.0" xmlns="http://www.w3.org/2000/svg"
 width="222.000000pt" height="222.000000pt" viewBox="0 0 222.000000 222.000000"
 preserveAspectRatio="xMidYMid meet">
<metadata>
Created by potrace 1.11, written by Peter Selinger 2001-2013
</metadata>
<g transform="translate(0.000000,222.000000) scale(0.100000,-0.100000)"
fill="#000000" stroke="none">
<path d="M895 2085 c-148 -34 -233 -71 -355 -151 -77 -51 -183 -151 -240 -229
-38 -51 -130 -220 -139 -255 -2 -8 -10 -37 -18 -65 -19 -68 -22 -81 -33 -150
-10 -71 -5 -256 9 -304 6 -19 8 -37 6 -41 -8 -13 59 -66 117 -93 99 -47 187
-40 325 24 41 19 87 32 119 34 56 3 153 -17 163 -34 4 -5 38 -25 76 -43 65
-30 78 -33 171 -33 l101 0 116 59 c137 69 185 74 290 31 169 -71 220 -79 312
-47 73 25 153 81 160 111 20 76 26 247 13 346 -32 250 -172 491 -378 652 -65
51 -240 151 -240 138 0 -4 -6 -3 -12 3 -15 12 -109 41 -158 48 -19 3 -51 9
-70 15 -64 17 -228 9 -335 -16z"/>
<path d="M674 699 c-2 -5 -10 -6 -18 -3 -7 3 -58 -16 -115 -41 -115 -52 -172
-61 -252 -41 -30 8 -56 12 -59 9 -3 -3 1 -8 8 -10 6 -3 12 -10 12 -17 0 -19
87 -133 115 -152 34 -22 79 -13 185 39 75 37 93 41 155 41 62 0 81 -5 166 -46
128 -60 222 -77 309 -56 19 5 43 11 54 13 10 2 29 11 42 20 13 8 24 13 24 11
0 -3 28 9 63 26 52 27 73 32 132 32 62 0 80 -5 157 -42 47 -23 106 -45 130
-48 40 -6 45 -4 78 32 43 48 90 116 90 131 0 6 6 13 12 16 7 2 10 7 7 11 -4 4
-22 1 -40 -7 -20 -8 -62 -13 -100 -12 -54 1 -80 8 -145 40 -93 45 -183 65
-237 53 -21 -4 -61 -20 -90 -34 -125 -61 -160 -72 -257 -75 -70 -2 -121 12
-229 63 -83 39 -186 63 -197 47z"/>
<path d="M655 353 c-67 -30 -108 -63 -95 -78 24 -29 216 -116 282 -129 13 -2
57 -11 98 -20 96 -20 228 -20 322 0 40 8 83 18 96 20 27 5 92 29 142 52 19 9
38 16 41 17 3 0 30 15 59 33 49 31 51 34 36 51 -9 9 -37 28 -63 42 -72 36
-175 33 -263 -8 -166 -78 -258 -79 -415 -1 -77 38 -180 47 -240 21z"/>
</g>
</svg>
